<svg xmlns="http://www.w3.org/2000/svg" viewBox="0 0 1920 1080" preserveAspectRatio="xMidYMid slice"><defs><linearGradient id="sky" x1="0" y1="0" x2="0" y2="1"><stop offset="0" stop-color="#020611"/><stop offset=".7" stop-color="#0b1f33"/><stop offset="1" stop-color="#123049"/></linearGradient>
<filter id="b" x="-20%" y="-50%" width="140%" height="200%"><feGaussianBlur stdDeviation="28"/></filter>
<linearGradient id="a1" x1="0" y1="0" x2="0" y2="1"><stop offset="0" stop-color="#7cffc4" stop-opacity="0"/><stop offset=".55" stop-color="#4ff0a8" stop-opacity=".8"/><stop offset="1" stop-color="#1fb0a0" stop-opacity="0"/></linearGradient>
<linearGradient id="a2" x1="0" y1="0" x2="0" y2="1"><stop offset="0" stop-color="#b98cff" stop-opacity="0"/><stop offset=".6" stop-color="#9b6bff" stop-opacity=".6"/><stop offset="1" stop-color="#4f7bff" stop-opacity="0"/></linearGradient>
<linearGradient id="snow" x1="0" y1="0" x2="0" y2="1"><stop offset="0" stop-color="#d7e6f5"/><stop offset="1" stop-color="#7d97b3"/></linearGradient></defs><rect width="1920" height="1080" fill="url(#sky)"/><circle cx="911" cy="366" r="0.53" fill="#fff" opacity="0.26"/><circle cx="720" cy="500" r="1.02" fill="#fff" opacity="0.64"/><circle cx="1072" cy="32" r="0.80" fill="#fff" opacity="0.36"/><circle cx="1739" cy="508" r="0.47" fill="#fff" opacity="0.70"/><circle cx="647" cy="532" r="0.42" fill="#fff" opacity="0.29"/><circle cx="1757" cy="15" r="1.29" fill="#fff" opacity="0.87"/><circle cx="216" cy="28" r="0.68" fill="#fff" opacity="0.65"/><circle cx="314" cy="6" r="0.55" fill="#fff" opacity="0.78"/><circle cx="769" cy="306" r="0.83" fill="#fff" opacity="0.50"/><circle cx="59" cy="664" r="1.28" fill="#fff" opacity="0.68"/><circle cx="684" cy="387" r="1.01" fill="#fff" opacity="0.32"/><circle cx="451" cy="239" r="1.13" fill="#fff" opacity="0.58"/><circle cx="54" cy="182" r="0.87" fill="#fff" opacity="0.39"/><circle cx="820" cy="463" r="0.49" fill="#fff" opacity="0.61"/><circle cx="342" cy="4" r="0.65" fill="#fff" opacity="0.47"/><circle cx="1223" cy="202" r="0.59" fill="#fff" opacity="0.43"/><circle cx="914" cy="217" r="1.26" fill="#fff" opacity="0.36"/><circle cx="1775" cy="49" r="1.07" fill="#fff" opacity="0.84"/><circle cx="13" cy="461" r="0.71" fill="#fff" opacity="0.41"/><circle cx="17" cy="325" r="1.29" fill="#fff" opacity="0.90"/><circle cx="967" cy="114" r="1.11" fill="#fff" opacity="0.79"/><circle cx="1228" cy="251" r="0.83" fill="#fff" opacity="0.66"/><circle cx="504" cy="585" r="0.55" fill="#fff" opacity="0.44"/><circle cx="1676" cy="638" r="0.86" fill="#fff" opacity="0.70"/><circle cx="1353" cy="94" r="0.63" fill="#fff" opacity="0.69"/><circle cx="1333" cy="577" r="0.78" fill="#fff" opacity="0.41"/><circle cx="836" cy="277" r="0.96" fill="#fff" opacity="0.85"/><circle cx="1847" cy="173" r="0.93" fill="#fff" opacity="0.84"/><circle cx="1515" cy="129" r="0.73" fill="#fff" opacity="0.73"/><circle cx="1082" cy="405" r="1.21" fill="#fff" opacity="0.77"/><circle cx="1723" cy="257" r="1.11" fill="#fff" opacity="0.50"/><circle cx="189" cy="109" r="1.24" fill="#fff" opacity="0.70"/><circle cx="1040" cy="25" r="0.88" fill="#fff" opacity="0.71"/><circle cx="757" cy="166" r="0.69" fill="#fff" opacity="0.70"/><circle cx="272" cy="109" r="1.03" fill="#fff" opacity="0.74"/><circle cx="1266" cy="140" r="0.43" fill="#fff" opacity="0.57"/><circle cx="852" cy="367" r="0.71" fill="#fff" opacity="0.40"/><circle cx="629" cy="0" r="0.72" fill="#fff" opacity="0.43"/><circle cx="387" cy="62" r="1.23" fill="#fff" opacity="0.58"/><circle cx="1340" cy="205" r="0.95" fill="#fff" opacity="0.80"/><circle cx="480" cy="545" r="1.15" fill="#fff" opacity="0.40"/><circle cx="1033" cy="159" r="1.01" fill="#fff" opacity="0.68"/><circle cx="1867" cy="378" r="0.72" fill="#fff" opacity="0.73"/><circle cx="619" cy="137" r="0.68" fill="#fff" opacity="0.34"/><circle cx="433" cy="77" r="0.44" fill="#fff" opacity="0.77"/><circle cx="548" cy="308" r="0.75" fill="#fff" opacity="0.82"/><circle cx="1723" cy="25" r="0.98" fill="#fff" opacity="0.80"/><circle cx="1168" cy="170" r="0.96" fill="#fff" opacity="0.42"/><circle cx="781" cy="152" r="0.76" fill="#fff" opacity="0.77"/><circle cx="326" cy="78" r="1.27" fill="#fff" opacity="0.59"/><circle cx="102" cy="564" r="1.14" fill="#fff" opacity="0.48"/><circle cx="1411" cy="29" r="1.18" fill="#fff" opacity="0.79"/><circle cx="406" cy="2" r="0.68" fill="#fff" opacity="0.26"/><circle cx="328" cy="410" r="0.67" fill="#fff" opacity="0.37"/><circle cx="353" cy="552" r="0.95" fill="#fff" opacity="0.32"/><circle cx="1315" cy="194" r="0.87" fill="#fff" opacity="0.67"/><circle cx="1537" cy="339" r="0.82" fill="#fff" opacity="0.66"/><circle cx="746" cy="243" r="1.04" fill="#fff" opacity="0.43"/><circle cx="1776" cy="545" r="1.02" fill="#fff" opacity="0.87"/><circle cx="1310" cy="165" r="0.95" fill="#fff" opacity="0.74"/><circle cx="1611" cy="8" r="0.50" fill="#fff" opacity="0.30"/><circle cx="108" cy="76" r="0.50" fill="#fff" opacity="0.70"/><circle cx="1182" cy="656" r="1.07" fill="#fff" opacity="0.87"/><circle cx="54" cy="619" r="0.83" fill="#fff" opacity="0.38"/><circle cx="1453" cy="264" r="0.68" fill="#fff" opacity="0.41"/><circle cx="167" cy="648" r="1.29" fill="#fff" opacity="0.75"/><circle cx="1792" cy="101" r="1.23" fill="#fff" opacity="0.64"/><circle cx="1285" cy="66" r="0.83" fill="#fff" opacity="0.73"/><circle cx="1586" cy="124" r="0.74" fill="#fff" opacity="0.81"/><circle cx="1900" cy="51" r="0.96" fill="#fff" opacity="0.60"/><circle cx="694" cy="152" r="0.95" fill="#fff" opacity="0.33"/><circle cx="1039" cy="437" r="0.63" fill="#fff" opacity="0.52"/><circle cx="196" cy="336" r="0.56" fill="#fff" opacity="0.61"/><circle cx="1144" cy="148" r="0.68" fill="#fff" opacity="0.48"/><circle cx="1915" cy="233" r="0.81" fill="#fff" opacity="0.36"/><circle cx="768" cy="114" r="0.73" fill="#fff" opacity="0.48"/><circle cx="1801" cy="120" r="0.99" fill="#fff" opacity="0.51"/><circle cx="990" cy="11" r="1.00" fill="#fff" opacity="0.32"/><circle cx="480" cy="688" r="1.01" fill="#fff" opacity="0.36"/><circle cx="841" cy="531" r="0.61" fill="#fff" opacity="0.38"/><circle cx="1225" cy="301" r="0.83" fill="#fff" opacity="0.87"/><circle cx="880" cy="156" r="0.82" fill="#fff" opacity="0.48"/><circle cx="1373" cy="71" r="0.87" fill="#fff" opacity="0.72"/><circle cx="963" cy="323" r="1.04" fill="#fff" opacity="0.48"/><circle cx="589" cy="581" r="1.11" fill="#fff" opacity="0.50"/><circle cx="1857" cy="34" r="1.15" fill="#fff" opacity="0.52"/><circle cx="603" cy="171" r="0.45" fill="#fff" opacity="0.28"/><circle cx="224" cy="37" r="0.51" fill="#fff" opacity="0.79"/><circle cx="729" cy="310" r="1.24" fill="#fff" opacity="0.34"/><circle cx="438" cy="602" r="1.24" fill="#fff" opacity="0.59"/><circle cx="705" cy="603" r="1.09" fill="#fff" opacity="0.61"/><circle cx="1519" cy="256" r="1.22" fill="#fff" opacity="0.32"/><circle cx="1185" cy="527" r="1.16" fill="#fff" opacity="0.67"/><circle cx="837" cy="227" r="0.72" fill="#fff" opacity="0.51"/><circle cx="149" cy="247" r="0.91" fill="#fff" opacity="0.80"/><circle cx="1721" cy="264" r="1.16" fill="#fff" opacity="0.49"/><circle cx="1729" cy="486" r="0.87" fill="#fff" opacity="0.65"/><circle cx="1902" cy="166" r="1.12" fill="#fff" opacity="0.74"/><circle cx="1007" cy="375" r="1.18" fill="#fff" opacity="0.67"/><circle cx="698" cy="13" r="0.51" fill="#fff" opacity="0.28"/><circle cx="1873" cy="311" r="0.52" fill="#fff" opacity="0.88"/><circle cx="1023" cy="516" r="1.17" fill="#fff" opacity="0.89"/><circle cx="429" cy="361" r="0.65" fill="#fff" opacity="0.62"/><circle cx="1346" cy="514" r="1.08" fill="#fff" opacity="0.44"/><circle cx="1451" cy="41" r="0.42" fill="#fff" opacity="0.65"/><circle cx="687" cy="224" r="0.77" fill="#fff" opacity="0.46"/><circle cx="1087" cy="253" r="1.29" fill="#fff" opacity="0.84"/><circle cx="573" cy="110" r="1.24" fill="#fff" opacity="0.29"/><circle cx="611" cy="361" r="1.04" fill="#fff" opacity="0.38"/><circle cx="234" cy="9" r="0.56" fill="#fff" opacity="0.53"/><circle cx="1573" cy="698" r="1.10" fill="#fff" opacity="0.53"/><circle cx="1750" cy="6" r="1.26" fill="#fff" opacity="0.82"/><circle cx="1268" cy="55" r="0.60" fill="#fff" opacity="0.29"/><circle cx="180" cy="587" r="1.24" fill="#fff" opacity="0.58"/><circle cx="1293" cy="467" r="1.04" fill="#fff" opacity="0.89"/><circle cx="1624" cy="301" r="0.55" fill="#fff" opacity="0.56"/><circle cx="859" cy="54" r="0.77" fill="#fff" opacity="0.36"/><circle cx="1198" cy="686" r="1.02" fill="#fff" opacity="0.59"/><circle cx="833" cy="53" r="1.27" fill="#fff" opacity="0.84"/><circle cx="1248" cy="32" r="0.89" fill="#fff" opacity="0.36"/><circle cx="623" cy="41" r="0.61" fill="#fff" opacity="0.72"/><circle cx="931" cy="37" r="0.48" fill="#fff" opacity="0.86"/><circle cx="1169" cy="274" r="0.53" fill="#fff" opacity="0.89"/><circle cx="951" cy="32" r="0.65" fill="#fff" opacity="0.61"/><circle cx="475" cy="81" r="0.47" fill="#fff" opacity="0.36"/><circle cx="522" cy="569" r="1.00" fill="#fff" opacity="0.53"/><circle cx="80" cy="25" r="0.58" fill="#fff" opacity="0.53"/><circle cx="1656" cy="8" r="1.22" fill="#fff" opacity="0.26"/><circle cx="1410" cy="101" r="0.59" fill="#fff" opacity="0.54"/><circle cx="1769" cy="258" r="0.48" fill="#fff" opacity="0.36"/><circle cx="567" cy="608" r="0.42" fill="#fff" opacity="0.47"/><circle cx="1843" cy="12" r="0.64" fill="#fff" opacity="0.83"/><circle cx="505" cy="23" r="0.99" fill="#fff" opacity="0.36"/><circle cx="1142" cy="569" r="0.79" fill="#fff" opacity="0.89"/><circle cx="780" cy="606" r="1.30" fill="#fff" opacity="0.32"/><circle cx="525" cy="576" r="0.63" fill="#fff" opacity="0.75"/><circle cx="916" cy="14" r="0.41" fill="#fff" opacity="0.40"/><circle cx="1791" cy="553" r="1.22" fill="#fff" opacity="0.51"/><circle cx="1337" cy="388" r="0.48" fill="#fff" opacity="0.83"/><circle cx="301" cy="384" r="1.07" fill="#fff" opacity="0.79"/><circle cx="600" cy="421" r="0.44" fill="#fff" opacity="0.82"/><circle cx="605" cy="109" r="1.04" fill="#fff" opacity="0.36"/><circle cx="260" cy="27" r="0.96" fill="#fff" opacity="0.89"/><circle cx="11" cy="134" r="0.68" fill="#fff" opacity="0.47"/><circle cx="207" cy="84" r="0.45" fill="#fff" opacity="0.34"/><circle cx="1782" cy="681" r="1.13" fill="#fff" opacity="0.73"/><circle cx="435" cy="682" r="1.02" fill="#fff" opacity="0.72"/><circle cx="276" cy="258" r="0.48" fill="#fff" opacity="0.39"/><circle cx="1858" cy="15" r="0.47" fill="#fff" opacity="0.74"/><circle cx="676" cy="29" r="0.56" fill="#fff" opacity="0.57"/><circle cx="821" cy="34" r="0.80" fill="#fff" opacity="0.32"/><circle cx="119" cy="6" r="1.06" fill="#fff" opacity="0.75"/><circle cx="1354" cy="39" r="0.78" fill="#fff" opacity="0.52"/><circle cx="139" cy="4" r="1.28" fill="#fff" opacity="0.69"/><circle cx="1891" cy="585" r="1.27" fill="#fff" opacity="0.76"/><circle cx="1114" cy="218" r="1.17" fill="#fff" opacity="0.63"/><circle cx="1051" cy="333" r="0.93" fill="#fff" opacity="0.86"/><circle cx="1484" cy="414" r="0.61" fill="#fff" opacity="0.56"/><circle cx="1010" cy="11" r="0.53" fill="#fff" opacity="0.37"/><circle cx="1190" cy="277" r="1.19" fill="#fff" opacity="0.53"/><circle cx="429" cy="169" r="0.79" fill="#fff" opacity="0.37"/><circle cx="1311" cy="683" r="0.85" fill="#fff" opacity="0.69"/><circle cx="1775" cy="1" r="1.23" fill="#fff" opacity="0.32"/><circle cx="1822" cy="79" r="1.04" fill="#fff" opacity="0.62"/><circle cx="868" cy="200" r="0.99" fill="#fff" opacity="0.70"/><circle cx="11" cy="400" r="1.18" fill="#fff" opacity="0.60"/><circle cx="1039" cy="52" r="1.21" fill="#fff" opacity="0.29"/><circle cx="1729" cy="151" r="0.96" fill="#fff" opacity="0.27"/><circle cx="858" cy="152" r="0.56" fill="#fff" opacity="0.29"/><circle cx="1821" cy="368" r="0.97" fill="#fff" opacity="0.43"/><circle cx="1071" cy="57" r="0.62" fill="#fff" opacity="0.85"/><circle cx="399" cy="198" r="1.10" fill="#fff" opacity="0.81"/><circle cx="1466" cy="262" r="0.48" fill="#fff" opacity="0.62"/><circle cx="831" cy="146" r="0.51" fill="#fff" opacity="0.50"/><circle cx="1596" cy="367" r="0.45" fill="#fff" opacity="0.39"/><circle cx="511" cy="23" r="1.25" fill="#fff" opacity="0.47"/><circle cx="2" cy="232" r="0.95" fill="#fff" opacity="0.78"/><circle cx="166" cy="545" r="0.86" fill="#fff" opacity="0.67"/><circle cx="589" cy="0" r="1.27" fill="#fff" opacity="0.83"/><circle cx="857" cy="214" r="1.02" fill="#fff" opacity="0.31"/><circle cx="1448" cy="302" r="0.96" fill="#fff" opacity="0.80"/><circle cx="1180" cy="505" r="0.74" fill="#fff" opacity="0.62"/><circle cx="1537" cy="19" r="0.81" fill="#fff" opacity="0.45"/><circle cx="1626" cy="602" r="1.11" fill="#fff" opacity="0.52"/><circle cx="1465" cy="23" r="0.67" fill="#fff" opacity="0.34"/><circle cx="1598" cy="102" r="1.05" fill="#fff" opacity="0.89"/><circle cx="271" cy="66" r="1.11" fill="#fff" opacity="0.73"/><circle cx="1475" cy="24" r="1.17" fill="#fff" opacity="0.32"/><circle cx="1114" cy="85" r="0.83" fill="#fff" opacity="0.69"/><circle cx="1241" cy="172" r="1.21" fill="#fff" opacity="0.72"/><circle cx="334" cy="542" r="0.94" fill="#fff" opacity="0.83"/><circle cx="509" cy="556" r="0.63" fill="#fff" opacity="0.33"/><circle cx="285" cy="512" r="0.58" fill="#fff" opacity="0.73"/><circle cx="379" cy="0" r="0.92" fill="#fff" opacity="0.74"/><circle cx="969" cy="23" r="0.81" fill="#fff" opacity="0.76"/><circle cx="716" cy="308" r="1.13" fill="#fff" opacity="0.73"/><circle cx="586" cy="506" r="0.78" fill="#fff" opacity="0.72"/><circle cx="795" cy="116" r="0.82" fill="#fff" opacity="0.45"/><circle cx="1717" cy="321" r="0.87" fill="#fff" opacity="0.55"/><circle cx="335" cy="192" r="0.71" fill="#fff" opacity="0.58"/><circle cx="251" cy="473" r="0.73" fill="#fff" opacity="0.35"/><circle cx="1859" cy="112" r="0.48" fill="#fff" opacity="0.62"/><circle cx="421" cy="411" r="0.65" fill="#fff" opacity="0.51"/><circle cx="167" cy="275" r="1.19" fill="#fff" opacity="0.53"/><circle cx="1848" cy="19" r="1.16" fill="#fff" opacity="0.50"/><circle cx="538" cy="319" r="0.60" fill="#fff" opacity="0.32"/><circle cx="1147" cy="277" r="0.54" fill="#fff" opacity="0.81"/><circle cx="825" cy="576" r="0.52" fill="#fff" opacity="0.57"/><circle cx="814" cy="65" r="0.62" fill="#fff" opacity="0.40"/><circle cx="1072" cy="620" r="1.18" fill="#fff" opacity="0.72"/><circle cx="781" cy="288" r="1.10" fill="#fff" opacity="0.87"/><circle cx="233" cy="595" r="0.76" fill="#fff" opacity="0.47"/><circle cx="61" cy="56" r="0.41" fill="#fff" opacity="0.31"/><circle cx="989" cy="597" r="1.00" fill="#fff" opacity="0.32"/><circle cx="1786" cy="497" r="1.21" fill="#fff" opacity="0.79"/><circle cx="1313" cy="2" r="1.29" fill="#fff" opacity="0.25"/><circle cx="817" cy="239" r="0.71" fill="#fff" opacity="0.58"/><circle cx="606" cy="3" r="0.71" fill="#fff" opacity="0.67"/><circle cx="877" cy="202" r="1.24" fill="#fff" opacity="0.59"/><circle cx="1403" cy="678" r="0.87" fill="#fff" opacity="0.78"/><circle cx="1202" cy="157" r="1.24" fill="#fff" opacity="0.89"/><circle cx="1724" cy="139" r="0.70" fill="#fff" opacity="0.83"/><circle cx="1585" cy="277" r="0.41" fill="#fff" opacity="0.61"/><circle cx="112" cy="64" r="0.95" fill="#fff" opacity="0.35"/><circle cx="629" cy="292" r="0.52" fill="#fff" opacity="0.89"/><circle cx="42" cy="408" r="0.92" fill="#fff" opacity="0.67"/><circle cx="1734" cy="237" r="0.63" fill="#fff" opacity="0.64"/><circle cx="892" cy="490" r="0.85" fill="#fff" opacity="0.53"/><circle cx="1068" cy="605" r="0.75" fill="#fff" opacity="0.57"/><circle cx="1614" cy="697" r="1.04" fill="#fff" opacity="0.60"/><circle cx="825" cy="326" r="0.41" fill="#fff" opacity="0.62"/><circle cx="1284" cy="519" r="1.07" fill="#fff" opacity="0.83"/><circle cx="561" cy="278" r="0.71" fill="#fff" opacity="0.44"/><circle cx="169" cy="89" r="0.71" fill="#fff" opacity="0.42"/><circle cx="1069" cy="556" r="0.47" fill="#fff" opacity="0.47"/><circle cx="1604" cy="9" r="0.80" fill="#fff" opacity="0.90"/><circle cx="1881" cy="436" r="0.70" fill="#fff" opacity="0.29"/><circle cx="1722" cy="691" r="0.81" fill="#fff" opacity="0.80"/><circle cx="915" cy="438" r="0.56" fill="#fff" opacity="0.27"/><circle cx="327" cy="21" r="0.47" fill="#fff" opacity="0.50"/><circle cx="103" cy="335" r="0.60" fill="#fff" opacity="0.76"/><circle cx="501" cy="164" r="1.16" fill="#fff" opacity="0.28"/><circle cx="1558" cy="667" r="0.90" fill="#fff" opacity="0.74"/><circle cx="988" cy="384" r="0.53" fill="#fff" opacity="0.38"/><circle cx="1746" cy="73" r="0.45" fill="#fff" opacity="0.71"/><circle cx="1513" cy="552" r="0.50" fill="#fff" opacity="0.57"/><circle cx="987" cy="115" r="0.84" fill="#fff" opacity="0.76"/><circle cx="488" cy="674" r="0.64" fill="#fff" opacity="0.32"/><circle cx="1788" cy="60" r="0.88" fill="#fff" opacity="0.82"/><circle cx="617" cy="0" r="0.52" fill="#fff" opacity="0.64"/><circle cx="953" cy="192" r="0.64" fill="#fff" opacity="0.51"/><circle cx="268" cy="388" r="0.57" fill="#fff" opacity="0.63"/><circle cx="1916" cy="112" r="0.98" fill="#fff" opacity="0.32"/><circle cx="209" cy="402" r="0.96" fill="#fff" opacity="0.61"/><circle cx="673" cy="242" r="1.14" fill="#fff" opacity="0.73"/><circle cx="642" cy="130" r="0.95" fill="#fff" opacity="0.80"/><circle cx="1829" cy="53" r="0.54" fill="#fff" opacity="0.79"/><circle cx="591" cy="292" r="0.78" fill="#fff" opacity="0.73"/><circle cx="345" cy="651" r="0.55" fill="#fff" opacity="0.50"/><circle cx="756" cy="32" r="0.68" fill="#fff" opacity="0.61"/><circle cx="263" cy="145" r="0.67" fill="#fff" opacity="0.80"/><circle cx="1424" cy="81" r="0.86" fill="#fff" opacity="0.67"/><circle cx="1460" cy="0" r="0.54" fill="#fff" opacity="0.90"/><circle cx="1049" cy="22" r="1.11" fill="#fff" opacity="0.79"/><circle cx="596" cy="11" r="0.68" fill="#fff" opacity="0.58"/><circle cx="858" cy="17" r="0.61" fill="#fff" opacity="0.79"/><circle cx="1852" cy="226" r="0.73" fill="#fff" opacity="0.83"/><circle cx="1451" cy="396" r="1.24" fill="#fff" opacity="0.59"/><circle cx="490" cy="624" r="0.60" fill="#fff" opacity="0.50"/><circle cx="1464" cy="6" r="1.13" fill="#fff" opacity="0.41"/><circle cx="243" cy="203" r="0.81" fill="#fff" opacity="0.37"/><circle cx="1369" cy="622" r="1.30" fill="#fff" opacity="0.47"/><circle cx="43" cy="257" r="0.72" fill="#fff" opacity="0.76"/><circle cx="785" cy="38" r="1.29" fill="#fff" opacity="0.75"/><circle cx="1307" cy="190" r="1.08" fill="#fff" opacity="0.67"/><circle cx="534" cy="501" r="0.45" fill="#fff" opacity="0.67"/><circle cx="1356" cy="271" r="1.23" fill="#fff" opacity="0.46"/><circle cx="1444" cy="431" r="0.46" fill="#fff" opacity="0.70"/><circle cx="721" cy="600" r="0.64" fill="#fff" opacity="0.55"/><circle cx="590" cy="97" r="0.95" fill="#fff" opacity="0.67"/><circle cx="1435" cy="88" r="1.15" fill="#fff" opacity="0.59"/><circle cx="1419" cy="175" r="0.43" fill="#fff" opacity="0.80"/><circle cx="1737" cy="60" r="0.97" fill="#fff" opacity="0.69"/><circle cx="541" cy="580" r="0.64" fill="#fff" opacity="0.65"/><circle cx="90" cy="5" r="0.67" fill="#fff" opacity="0.85"/><circle cx="1109" cy="33" r="0.90" fill="#fff" opacity="0.33"/><circle cx="128" cy="80" r="1.10" fill="#fff" opacity="0.62"/><circle cx="1230" cy="157" r="0.50" fill="#fff" opacity="0.44"/><circle cx="1907" cy="123" r="0.97" fill="#fff" opacity="0.84"/><circle cx="1558" cy="36" r="0.45" fill="#fff" opacity="0.30"/><circle cx="1575" cy="396" r="1.05" fill="#fff" opacity="0.34"/><circle cx="1113" cy="3" r="0.96" fill="#fff" opacity="0.25"/><circle cx="793" cy="560" r="0.72" fill="#fff" opacity="0.38"/><circle cx="1306" cy="677" r="1.23" fill="#fff" opacity="0.89"/><circle cx="1187" cy="54" r="1.04" fill="#fff" opacity="0.54"/><circle cx="1353" cy="284" r="1.17" fill="#fff" opacity="0.44"/><circle cx="1601" cy="365" r="0.44" fill="#fff" opacity="0.41"/><circle cx="138" cy="253" r="1.13" fill="#fff" opacity="0.78"/><circle cx="1754" cy="631" r="0.78" fill="#fff" opacity="0.68"/><circle cx="1387" cy="92" r="0.79" fill="#fff" opacity="0.47"/><circle cx="1399" cy="361" r="0.44" fill="#fff" opacity="0.77"/><circle cx="1475" cy="48" r="1.24" fill="#fff" opacity="0.51"/><circle cx="1066" cy="77" r="0.78" fill="#fff" opacity="0.62"/><circle cx="491" cy="179" r="0.60" fill="#fff" opacity="0.67"/><circle cx="613" cy="72" r="0.78" fill="#fff" opacity="0.65"/><circle cx="131" cy="12" r="1.25" fill="#fff" opacity="0.27"/><circle cx="591" cy="372" r="0.48" fill="#fff" opacity="0.38"/><circle cx="1581" cy="7" r="0.49" fill="#fff" opacity="0.47"/><circle cx="694" cy="636" r="0.97" fill="#fff" opacity="0.47"/><circle cx="425" cy="9" r="1.18" fill="#fff" opacity="0.81"/><circle cx="709" cy="553" r="0.61" fill="#fff" opacity="0.51"/><circle cx="1705" cy="133" r="0.58" fill="#fff" opacity="0.54"/><circle cx="1795" cy="445" r="1.16" fill="#fff" opacity="0.49"/><circle cx="1419" cy="596" r="0.73" fill="#fff" opacity="0.80"/><circle cx="365" cy="643" r="1.07" fill="#fff" opacity="0.74"/><circle cx="346" cy="278" r="1.12" fill="#fff" opacity="0.40"/><circle cx="1037" cy="385" r="0.63" fill="#fff" opacity="0.31"/><circle cx="691" cy="278" r="0.87" fill="#fff" opacity="0.28"/><circle cx="1798" cy="51" r="0.65" fill="#fff" opacity="0.87"/><circle cx="60" cy="140" r="1.16" fill="#fff" opacity="0.29"/><circle cx="1015" cy="332" r="0.80" fill="#fff" opacity="0.67"/><circle cx="1366" cy="86" r="0.97" fill="#fff" opacity="0.77"/><circle cx="187" cy="174" r="0.55" fill="#fff" opacity="0.46"/><circle cx="133" cy="276" r="0.79" fill="#fff" opacity="0.81"/><circle cx="1590" cy="3" r="0.93" fill="#fff" opacity="0.40"/><circle cx="1164" cy="489" r="1.17" fill="#fff" opacity="0.37"/><circle cx="1572" cy="31" r="0.91" fill="#fff" opacity="0.41"/><circle cx="755" cy="452" r="1.10" fill="#fff" opacity="0.83"/><circle cx="458" cy="521" r="0.76" fill="#fff" opacity="0.32"/><circle cx="968" cy="337" r="0.76" fill="#fff" opacity="0.35"/><circle cx="1443" cy="35" r="0.59" fill="#fff" opacity="0.57"/><circle cx="314" cy="186" r="0.47" fill="#fff" opacity="0.38"/><circle cx="418" cy="316" r="1.19" fill="#fff" opacity="0.51"/><circle cx="1055" cy="227" r="0.74" fill="#fff" opacity="0.82"/><circle cx="1302" cy="504" r="0.62" fill="#fff" opacity="0.32"/><circle cx="449" cy="545" r="0.63" fill="#fff" opacity="0.30"/><circle cx="209" cy="232" r="1.26" fill="#fff" opacity="0.47"/><circle cx="275" cy="444" r="0.85" fill="#fff" opacity="0.80"/><circle cx="1821" cy="15" r="1.16" fill="#fff" opacity="0.82"/><circle cx="1103" cy="472" r="0.72" fill="#fff" opacity="0.26"/><circle cx="1837" cy="124" r="1.19" fill="#fff" opacity="0.84"/><circle cx="844" cy="699" r="0.87" fill="#fff" opacity="0.58"/><circle cx="1803" cy="398" r="0.58" fill="#fff" opacity="0.46"/><circle cx="1502" cy="609" r="1.05" fill="#fff" opacity="0.85"/><circle cx="1625" cy="163" r="0.49" fill="#fff" opacity="0.84"/><circle cx="1495" cy="96" r="1.27" fill="#fff" opacity="0.46"/><circle cx="329" cy="403" r="1.13" fill="#fff" opacity="0.42"/><circle cx="1304" cy="366" r="0.55" fill="#fff" opacity="0.76"/><circle cx="198" cy="311" r="1.21" fill="#fff" opacity="0.70"/><circle cx="1641" cy="368" r="1.23" fill="#fff" opacity="0.88"/><circle cx="1607" cy="95" r="0.80" fill="#fff" opacity="0.61"/><circle cx="894" cy="345" r="1.23" fill="#fff" opacity="0.89"/><circle cx="83" cy="682" r="0.49" fill="#fff" opacity="0.50"/><circle cx="332" cy="201" r="1.18" fill="#fff" opacity="0.88"/><circle cx="1697" cy="342" r="1.29" fill="#fff" opacity="0.52"/><circle cx="839" cy="286" r="0.41" fill="#fff" opacity="0.61"/><circle cx="251" cy="569" r="1.08" fill="#fff" opacity="0.51"/><circle cx="1796" cy="6" r="0.45" fill="#fff" opacity="0.57"/><circle cx="495" cy="666" r="0.83" fill="#fff" opacity="0.79"/><circle cx="220" cy="57" r="1.17" fill="#fff" opacity="0.60"/><circle cx="691" cy="67" r="1.05" fill="#fff" opacity="0.57"/><circle cx="272" cy="149" r="0.65" fill="#fff" opacity="0.35"/><circle cx="1057" cy="0" r="1.02" fill="#fff" opacity="0.38"/><circle cx="959" cy="98" r="1.16" fill="#fff" opacity="0.31"/><circle cx="588" cy="36" r="1.02" fill="#fff" opacity="0.85"/><circle cx="1479" cy="313" r="0.97" fill="#fff" opacity="0.43"/><circle cx="124" cy="624" r="0.71" fill="#fff" opacity="0.32"/><circle cx="1529" cy="6" r="1.29" fill="#fff" opacity="0.38"/><circle cx="459" cy="414" r="0.98" fill="#fff" opacity="0.36"/><circle cx="1725" cy="56" r="1.11" fill="#fff" opacity="0.40"/><circle cx="813" cy="212" r="1.08" fill="#fff" opacity="0.33"/><circle cx="1919" cy="539" r="0.81" fill="#fff" opacity="0.49"/><circle cx="1085" cy="53" r="0.51" fill="#fff" opacity="0.37"/><circle cx="510" cy="612" r="0.44" fill="#fff" opacity="0.42"/><circle cx="126" cy="576" r="0.90" fill="#fff" opacity="0.50"/><circle cx="1502" cy="409" r="1.05" fill="#fff" opacity="0.42"/><circle cx="136" cy="57" r="1.07" fill="#fff" opacity="0.80"/><circle cx="124" cy="260" r="0.80" fill="#fff" opacity="0.41"/><circle cx="1909" cy="460" r="1.14" fill="#fff" opacity="0.85"/><circle cx="1707" cy="368" r="0.43" fill="#fff" opacity="0.46"/><g filter="url(#b)"><path d="M-100 420 C300 200 600 520 960 330 S1600 180 2050 360 L2050 560 C1600 380 1300 620 960 520 S300 420 -100 640 Z" fill="url(#a1)"/><path d="M-100 260 C400 120 700 360 1100 220 S1700 120 2050 220 L2050 360 C1700 260 1400 420 1050 360 S400 260 -100 420 Z" fill="url(#a2)"/></g><path d="M0 1080 L0 860 L0 774 L64 777 L128 793 L192 815 L256 834 L320 851 L384 862 L448 862 L512 857 L576 848 L640 838 L704 836 L768 849 L832 863 L896 891 L960 917 L1024 938 L1088 942 L1152 939 L1216 921 L1280 896 L1344 868 L1408 838 L1472 817 L1536 810 L1600 807 L1664 820 L1728 835 L1792 842 L1856 851 L1920 842 L1920 1080 Z" fill="#5d7891" opacity="1"/><path d="M0 1080 L0 930 L0 960 L64 966 L128 960 L192 952 L256 934 L320 909 L384 887 L448 867 L512 861 L576 859 L640 873 L704 891 L768 910 L832 930 L896 941 L960 946 L1024 946 L1088 936 L1152 929 L1216 926 L1280 929 L1344 935 L1408 951 L1472 967 L1536 982 L1600 988 L1664 987 L1728 974 L1792 954 L1856 930 L1920 903 L1920 1080 Z" fill="url(#snow)" opacity="1"/><path d="M0 1080 L0 1010 L0 1026 L64 1032 L128 1037 L192 1032 L256 1022 L320 1007 L384 991 L448 975 L512 964 L576 960 L640 963 L704 974 L768 988 L832 1001 L896 1013 L960 1019 L1024 1020 L1088 1017 L1152 1013 L1216 1006 L1280 1005 L1344 1009 L1408 1017 L1472 1028 L1536 1042 L1600 1050 L1664 1054 L1728 1050 L1792 1038 L1856 1023 L1920 1006 L1920 1080 Z" fill="#9fb6cc" opacity="1"/></svg>